<svg xmlns="http://www.w3.org/2000/svg" viewBox="0 0 64 64"><switch><g><g fill="#0AC5AB"><path d="M51.982 21.654c.004.117.018.23.018.346v20c0 6.628-5.372 12-12 12H20c-6.627 0-12-5.372-12-12V22c0-6.627 5.373-12 12-12h20c.573 0 1.133.054 1.685.132a53.414 53.414 0 0 1 9.161-6.577A15.905 15.905 0 0 0 44 2H16C7.164 2 0 9.164 0 18v28c0 8.837 7.164 16 16 16h28c8.837 0 16-7.163 16-16V18c0-.603-.04-1.196-.104-1.781-2.804 1.384-5.471 3.23-7.914 5.435z"/><path d="M60.749 3.713c-.404 0-.84.076-1.301.244-13.361 4.856-24.57 16.654-29.477 30.172-2.883-3.492-6.381-6.346-10.691-8.559a3.88 3.88 0 0 0-1.779-.451c-3.43 0-5.698 5.033-2.006 6.928C21.44 35.1 25.2 39.26 28.208 45.188c.617 1.22 1.939 1.812 3.26 1.812 1.652 0 3.307-.926 3.594-2.707 2.264-14.068 12.725-28.141 26.381-33.104 4.05-1.472 2.888-7.476-.694-7.476z"/></g></g></switch></svg>